<svg xmlns="http://www.w3.org/2000/svg" viewBox="0 0 640 660" role="img" aria-labelledby="t d" font-family="ui-sans-serif, system-ui, -apple-system, sans-serif">
  <title id="t">Polaire de vitesse — Catamaran 40 pieds</title>
  <desc id="d">Diagramme polaire en demi-cercle (côté droit) montrant la vitesse du bateau (en nœuds, distance au centre) selon l'angle au vent TWA pour différentes vitesses de vent réel TWS. Une courbe par valeur de TWS. La zone TWA &lt; 40° n'est pas tracée : dans cette zone le planificateur modélise le louvoyage via projection VMG.</desc>
  <style>
    text { fill: currentColor; }
    .archetype-name { font-size: 18px; font-weight: 600; }
    .archetype-meta { font-size: 11px; opacity: 0.65; }
    .speed-label { font-size: 10px; opacity: 0.55; font-family: ui-monospace, monospace; }
    .angle-label { font-size: 11px; opacity: 0.7; }
    .cardinal { font-size: 11px; opacity: 0.7; font-style: italic; }
    .legend { font-size: 11px; }
    .legend-conv { font-size: 10.5px; opacity: 0.7; font-style: italic; }
  </style>

  <text x="320" y="28" class="archetype-name" text-anchor="middle">Catamaran 40 pieds</text>
  <text x="320" y="50" class="archetype-meta" text-anchor="middle">fast-reach · 40 pieds</text>

  <!-- Speed rings -->
  <circle cx="320" cy="320" r="43.4" fill="none" stroke="currentColor" stroke-width="0.6" opacity="0.18"/>
  <circle cx="320" cy="320" r="86.8" fill="none" stroke="currentColor" stroke-width="0.6" opacity="0.18"/>
  <circle cx="320" cy="320" r="130.2" fill="none" stroke="currentColor" stroke-width="0.6" opacity="0.18"/>
  <circle cx="320" cy="320" r="173.6" fill="none" stroke="currentColor" stroke-width="0.6" opacity="0.18"/>
  <circle cx="320" cy="320" r="217.0" fill="none" stroke="currentColor" stroke-width="0.6" opacity="0.18"/>

  <!-- Wind axis + horizontal axis -->
  <line x1="320" y1="84" x2="320" y2="556" stroke="currentColor" stroke-width="0.8" opacity="0.45"/>
  <line x1="320" y1="320" x2="556" y2="320" stroke="currentColor" stroke-width="0.8" opacity="0.45"/>

  <!-- Angular ticks + labels (right side only) -->
  <line x1="432.0" y1="126.0" x2="438.0" y2="115.6" stroke="currentColor" stroke-width="0.8" opacity="0.55"/>
  <line x1="478.4" y1="161.6" x2="486.9" y2="153.1" stroke="currentColor" stroke-width="0.8" opacity="0.55"/>
  <line x1="514.0" y1="208.0" x2="524.4" y2="202.0" stroke="currentColor" stroke-width="0.8" opacity="0.55"/>
  <line x1="536.4" y1="262.0" x2="548.0" y2="258.9" stroke="currentColor" stroke-width="0.8" opacity="0.55"/>
  <line x1="544.0" y1="320.0" x2="556.0" y2="320.0" stroke="currentColor" stroke-width="0.8" opacity="0.55"/>
  <line x1="530.5" y1="396.6" x2="541.8" y2="400.7" stroke="currentColor" stroke-width="0.8" opacity="0.55"/>
  <line x1="478.4" y1="478.4" x2="486.9" y2="486.9" stroke="currentColor" stroke-width="0.8" opacity="0.55"/>
  <line x1="432.0" y1="514.0" x2="438.0" y2="524.4" stroke="currentColor" stroke-width="0.8" opacity="0.55"/>
  <text x="446.0" y="101.8" class="angle-label" text-anchor="middle" dominant-baseline="middle">30°</text>
  <text x="498.2" y="141.8" class="angle-label" text-anchor="middle" dominant-baseline="middle">45°</text>
  <text x="538.2" y="194.0" class="angle-label" text-anchor="middle" dominant-baseline="middle">60°</text>
  <text x="563.4" y="254.8" class="angle-label" text-anchor="middle" dominant-baseline="middle">75°</text>
  <text x="572.0" y="320.0" class="angle-label" text-anchor="middle" dominant-baseline="middle">90°</text>
  <text x="556.8" y="406.2" class="angle-label" text-anchor="middle" dominant-baseline="middle">110°</text>
  <text x="498.2" y="498.2" class="angle-label" text-anchor="middle" dominant-baseline="middle">135°</text>
  <text x="446.0" y="538.2" class="angle-label" text-anchor="middle" dominant-baseline="middle">150°</text>

  <!-- Cardinal labels -->
  
    <text x="320" y="74" class="cardinal" text-anchor="middle">0° — vent debout</text>
    <text x="320" y="572" class="cardinal" text-anchor="middle">180° — vent arrière</text>
  

  <!-- Speed labels (left vertical axis, mirrored) -->
  <text x="312" y="279.6" class="speed-label" text-anchor="end">2 kn</text>
  <text x="312" y="366.4" class="speed-label" text-anchor="end">2 kn</text>
  <text x="312" y="236.2" class="speed-label" text-anchor="end">4 kn</text>
  <text x="312" y="409.8" class="speed-label" text-anchor="end">4 kn</text>
  <text x="312" y="192.8" class="speed-label" text-anchor="end">6 kn</text>
  <text x="312" y="453.2" class="speed-label" text-anchor="end">6 kn</text>
  <text x="312" y="149.4" class="speed-label" text-anchor="end">8 kn</text>
  <text x="312" y="496.6" class="speed-label" text-anchor="end">8 kn</text>
  <text x="312" y="106.0" class="speed-label" text-anchor="end">10 kn</text>
  <text x="312" y="540.0" class="speed-label" text-anchor="end">10 kn</text>
  <text x="312" y="323" class="speed-label" text-anchor="end">0</text>

  <!-- Polar curves (one per TWS), open at the close-hauled top.
       Solid = polar; dashed = VMG projection in the louvoyage zone. -->
  <g>
        <path d="M 356.3 276.8 L 379.8 269.8 L 402.7 272.3 L 429.0 290.8 L 441.5 320.0 L 434.2 361.6 L 398.2 398.2 L 368.8 404.6 L 340.2 395.5 L 299.8 395.5 L 271.2 404.6 L 241.8 398.2 L 205.8 361.6 L 198.5 320.0 L 211.0 290.8 L 237.3 272.3 L 260.2 269.8 L 283.7 276.8" fill="none" stroke="#38bdf8" stroke-width="2.2" stroke-linejoin="round" stroke-linecap="round" opacity="0.95">
          <title>6 kn de vent réel — polaire</title>
        </path>
        <path d="M 257.9 269.7 L 382.1 269.7" fill="none" stroke="#38bdf8" stroke-width="1.8" stroke-linejoin="round" stroke-linecap="round" stroke-dasharray="4 3" opacity="0.85">
          <title>6 kn de vent réel — projection VMG (louvoyage), TWA_opt = 51°</title>
        </path>
      </g>
<g>
        <path d="M 364.6 266.8 L 394.8 257.2 L 423.4 260.3 L 454.1 284.1 L 471.9 320.0 L 464.8 372.7 L 419.7 419.7 L 382.9 429.0 L 346.4 418.5 L 293.6 418.5 L 257.1 429.0 L 220.3 419.7 L 175.2 372.7 L 168.1 320.0 L 185.9 284.1 L 216.6 260.3 L 245.2 257.2 L 275.4 266.8" fill="none" stroke="#0ea5e9" stroke-width="2.2" stroke-linejoin="round" stroke-linecap="round" opacity="0.95">
          <title>8 kn de vent réel — polaire</title>
        </path>
        <path d="M 242.4 257.2 L 397.6 257.2" fill="none" stroke="#0ea5e9" stroke-width="1.8" stroke-linejoin="round" stroke-linecap="round" stroke-dasharray="4 3" opacity="0.85">
          <title>8 kn de vent réel — projection VMG (louvoyage), TWA_opt = 51°</title>
        </path>
      </g>
<g>
        <path d="M 371.6 258.5 L 406.4 247.5 L 438.4 251.7 L 473.0 279.0 L 493.6 320.0 L 487.2 380.9 L 436.6 436.6 L 394.9 449.7 L 352.0 439.5 L 288.0 439.5 L 245.1 449.7 L 203.4 436.6 L 152.8 380.9 L 146.4 320.0 L 167.0 279.0 L 201.6 251.7 L 233.6 247.5 L 268.4 258.5" fill="none" stroke="#10b981" stroke-width="2.2" stroke-linejoin="round" stroke-linecap="round" opacity="0.95">
          <title>10 kn de vent réel — polaire</title>
        </path>
        <path d="M 233.6 247.5 L 406.4 247.5" fill="none" stroke="#10b981" stroke-width="1.8" stroke-linejoin="round" stroke-linecap="round" stroke-dasharray="4 3" opacity="0.85">
          <title>10 kn de vent réel — projection VMG (louvoyage), TWA_opt = 50°</title>
        </path>
      </g>
<g>
        <path d="M 377.2 251.9 L 414.7 240.5 L 451.5 244.1 L 487.7 275.1 L 508.8 320.0 L 503.5 386.8 L 450.4 450.4 L 403.5 464.7 L 356.5 456.2 L 283.5 456.2 L 236.5 464.7 L 189.6 450.4 L 136.5 386.8 L 131.2 320.0 L 152.3 275.1 L 188.5 244.1 L 225.3 240.5 L 262.8 251.9" fill="none" stroke="#84cc16" stroke-width="2.2" stroke-linejoin="round" stroke-linecap="round" opacity="0.95">
          <title>12 kn de vent réel — polaire</title>
        </path>
        <path d="M 218.1 240.4 L 421.9 240.4" fill="none" stroke="#84cc16" stroke-width="1.8" stroke-linejoin="round" stroke-linecap="round" stroke-dasharray="4 3" opacity="0.85">
          <title>12 kn de vent réel — projection VMG (louvoyage), TWA_opt = 52°</title>
        </path>
      </g>
<g>
        <path d="M 381.4 246.9 L 421.4 234.9 L 459.1 239.7 L 498.1 272.3 L 519.6 320.0 L 515.7 391.2 L 461.2 461.2 L 411.1 477.8 L 359.9 468.8 L 280.1 468.8 L 228.9 477.8 L 178.8 461.2 L 124.3 391.2 L 120.4 320.0 L 141.9 272.3 L 180.9 239.7 L 218.6 234.9 L 258.6 246.9" fill="none" stroke="#facc15" stroke-width="2.2" stroke-linejoin="round" stroke-linecap="round" opacity="0.95">
          <title>14 kn de vent réel — polaire</title>
        </path>
        <path d="M 218.6 234.9 L 421.4 234.9" fill="none" stroke="#facc15" stroke-width="1.8" stroke-linejoin="round" stroke-linecap="round" stroke-dasharray="4 3" opacity="0.85">
          <title>14 kn de vent réel — projection VMG (louvoyage), TWA_opt = 50°</title>
        </path>
      </g>
<g>
        <path d="M 384.2 243.5 L 424.7 232.1 L 464.7 236.5 L 504.4 270.6 L 528.3 320.0 L 523.9 394.2 L 468.8 468.8 L 416.6 487.2 L 362.7 479.3 L 277.3 479.3 L 223.4 487.2 L 171.2 468.8 L 116.1 394.2 L 111.7 320.0 L 135.6 270.6 L 175.3 236.5 L 215.3 232.1 L 255.8 243.5" fill="none" stroke="#fb923c" stroke-width="2.2" stroke-linejoin="round" stroke-linecap="round" opacity="0.95">
          <title>16 kn de vent réel — polaire</title>
        </path>
        <path d="M 211.4 232.1 L 428.6 232.1" fill="none" stroke="#fb923c" stroke-width="1.8" stroke-linejoin="round" stroke-linecap="round" stroke-dasharray="4 3" opacity="0.85">
          <title>16 kn de vent réel — projection VMG (louvoyage), TWA_opt = 51°</title>
        </path>
      </g>
<g>
        <path d="M 386.9 240.2 L 429.7 227.9 L 470.3 233.2 L 510.7 268.9 L 534.8 320.0 L 532.1 397.2 L 478.0 478.0 L 423.1 498.5 L 366.1 491.9 L 273.9 491.9 L 216.9 498.5 L 162.0 478.0 L 107.9 397.2 L 105.2 320.0 L 129.3 268.9 L 169.7 233.2 L 210.3 227.9 L 253.1 240.2" fill="none" stroke="#ef4444" stroke-width="2.2" stroke-linejoin="round" stroke-linecap="round" opacity="0.95">
          <title>20 kn de vent réel — polaire</title>
        </path>
        <path d="M 210.3 227.9 L 429.7 227.9" fill="none" stroke="#ef4444" stroke-width="1.8" stroke-linejoin="round" stroke-linecap="round" stroke-dasharray="4 3" opacity="0.85">
          <title>20 kn de vent réel — projection VMG (louvoyage), TWA_opt = 50°</title>
        </path>
      </g>
<g>
        <path d="M 388.3 238.6 L 431.4 226.6 L 472.2 232.1 L 512.8 268.3 L 539.2 320.0 L 536.1 398.7 L 482.6 482.6 L 427.4 506.0 L 368.3 500.2 L 271.7 500.2 L 212.6 506.0 L 157.4 482.6 L 103.9 398.7 L 100.8 320.0 L 127.2 268.3 L 167.8 232.1 L 208.6 226.6 L 251.7 238.6" fill="none" stroke="#d946ef" stroke-width="2.2" stroke-linejoin="round" stroke-linecap="round" opacity="0.95">
          <title>25 kn de vent réel — polaire</title>
        </path>
        <path d="M 208.6 226.6 L 431.4 226.6" fill="none" stroke="#d946ef" stroke-width="1.8" stroke-linejoin="round" stroke-linecap="round" stroke-dasharray="4 3" opacity="0.85">
          <title>25 kn de vent réel — projection VMG (louvoyage), TWA_opt = 50°</title>
        </path>
      </g>

  <!-- Legend: TWS swatches + convention reminder -->
  
        <g transform="translate(40, 604)">
          <line x1="0" y1="6" x2="22" y2="6" stroke="#38bdf8" stroke-width="3" stroke-linecap="round"/>
          <text x="28" y="10" class="legend">6 kn</text>
        </g>
        <g transform="translate(110, 604)">
          <line x1="0" y1="6" x2="22" y2="6" stroke="#0ea5e9" stroke-width="3" stroke-linecap="round"/>
          <text x="28" y="10" class="legend">8 kn</text>
        </g>
        <g transform="translate(180, 604)">
          <line x1="0" y1="6" x2="22" y2="6" stroke="#10b981" stroke-width="3" stroke-linecap="round"/>
          <text x="28" y="10" class="legend">10 kn</text>
        </g>
        <g transform="translate(250, 604)">
          <line x1="0" y1="6" x2="22" y2="6" stroke="#84cc16" stroke-width="3" stroke-linecap="round"/>
          <text x="28" y="10" class="legend">12 kn</text>
        </g>
        <g transform="translate(320, 604)">
          <line x1="0" y1="6" x2="22" y2="6" stroke="#facc15" stroke-width="3" stroke-linecap="round"/>
          <text x="28" y="10" class="legend">14 kn</text>
        </g>
        <g transform="translate(390, 604)">
          <line x1="0" y1="6" x2="22" y2="6" stroke="#fb923c" stroke-width="3" stroke-linecap="round"/>
          <text x="28" y="10" class="legend">16 kn</text>
        </g>
        <g transform="translate(460, 604)">
          <line x1="0" y1="6" x2="22" y2="6" stroke="#ef4444" stroke-width="3" stroke-linecap="round"/>
          <text x="28" y="10" class="legend">20 kn</text>
        </g>
        <g transform="translate(530, 604)">
          <line x1="0" y1="6" x2="22" y2="6" stroke="#d946ef" stroke-width="3" stroke-linecap="round"/>
          <text x="28" y="10" class="legend">25 kn</text>
        </g>
  
    <g transform="translate(120, 630)">
      <line x1="0" y1="6" x2="26" y2="6" stroke="currentColor" stroke-width="2.2" stroke-linecap="round" opacity="0.65"/>
      <text x="32" y="10" class="legend-conv">trait plein : polaire</text>
      <line x1="180" y1="6" x2="206" y2="6" stroke="currentColor" stroke-width="2" stroke-dasharray="4 3" stroke-linecap="round" opacity="0.65"/>
      <text x="212" y="10" class="legend-conv">pointillé : projection VMG (zone de louvoyage)</text>
    </g>
  

  <text x="320" y="652" class="archetype-meta" text-anchor="middle">Exemples : Lagoon 40, Bali 4.1, Fountaine Pajot Lucia 40</text>
</svg>
